<svg width="251" height="73" viewBox="0 0 251 73" fill="none" xmlns="http://www.w3.org/2000/svg">
<path d="M248.972 63.9859C248.972 67.8404 245.785 70.9625 241.843 70.9625H8.52936C4.58902 70.9625 1.39062 67.8404 1.39062 63.9859V8.3503C1.39062 4.49772 4.58902 1.36465 8.52936 1.36465H241.841C245.785 1.36465 248.97 4.49772 248.97 8.3503L248.972 63.9859Z" fill="black"/>
<path d="M241.091 1.44883C245.384 1.44883 248.877 4.85499 248.877 9.04092V63.2863C248.877 67.4722 245.384 70.8784 241.091 70.8784H9.27271C4.97945 70.8784 1.48595 67.4722 1.48595 63.2863V9.04092C1.48595 4.85499 4.97945 1.44883 9.27271 1.44883H241.091ZM241.091 3.05176e-05H9.27271C4.17504 3.05176e-05 0 4.07069 0 9.04092V63.2863C0 68.2565 4.17504 72.3272 9.27271 72.3272H241.091C246.188 72.3272 250.363 68.2565 250.363 63.2863V9.04092C250.363 4.07069 246.188 3.05176e-05 241.091 3.05176e-05Z" fill="#A6A6A6"/>
<path d="M55.8751 35.773C55.8214 29.9453 60.7693 27.11 60.9955 26.978C58.1933 22.9946 53.85 22.4504 52.3237 22.407C48.6758 22.0327 45.1373 24.5352 43.2791 24.5352C41.3837 24.5352 38.5222 22.4431 35.4381 22.5046C31.4694 22.5643 27.7566 24.8046 25.7203 28.2835C21.5179 35.377 24.6521 45.8012 28.6783 51.5349C30.6923 54.343 33.0457 57.4784 36.1261 57.3681C39.1397 57.2469 40.2655 55.4948 43.9022 55.4948C47.5056 55.4948 48.5627 57.3681 51.7043 57.2976C54.9386 57.2469 56.9749 54.4768 58.9184 51.6434C61.2459 48.4248 62.1806 45.2551 62.2177 45.0924C62.1416 45.0671 55.9363 42.758 55.8751 35.773Z" fill="white"/>
<path d="M49.9406 18.6351C51.5615 16.6588 52.6705 13.97 52.3626 11.2415C50.0166 11.3427 47.0827 12.8236 45.3933 14.7566C43.8985 16.4599 42.5632 19.2517 42.9082 21.8772C45.5435 22.0688 48.2493 20.5807 49.9406 18.6351Z" fill="white"/>
<path d="M85.0556 24.2273H83.1028V14.1536H79.6703V12.4847H88.4966V14.1536H85.0556V24.2273ZM91.8946 13.6719L93.9421 10.6265H95.7142L93.3141 13.6719H91.8946ZM92.8925 24.3821C90.415 24.3821 88.8751 22.8594 88.8751 20.2959V19.0657C88.8751 16.4849 90.5612 14.9795 92.7807 14.9795C95.0604 14.9795 96.6691 16.5623 96.6691 19.0657V20.1324H90.7677V20.5798C90.7677 21.8874 91.5419 22.8508 92.8839 22.8508C93.8818 22.8508 94.57 22.3777 94.6991 21.8099H96.5659C96.454 22.8594 95.3443 24.3821 92.8925 24.3821ZM90.7677 18.885H94.8023V18.7646C94.8023 17.3968 94.0023 16.4849 92.7893 16.4849C91.5763 16.4849 90.7677 17.3968 90.7677 18.7646V18.885ZM99.138 24.2273V11.8653H101.048V24.2273H99.138ZM106.571 13.6719L108.618 10.6265H110.39L107.99 13.6719H106.571ZM107.569 24.3821C105.091 24.3821 103.551 22.8594 103.551 20.2959V19.0657C103.551 16.4849 105.237 14.9795 107.457 14.9795C109.736 14.9795 111.345 16.5623 111.345 19.0657V20.1324H105.444V20.5798C105.444 21.8874 106.218 22.8508 107.56 22.8508C108.558 22.8508 109.246 22.3777 109.375 21.8099H111.242C111.13 22.8594 110.02 24.3821 107.569 24.3821ZM105.444 18.885H109.478V18.7646C109.478 17.3968 108.678 16.4849 107.465 16.4849C106.252 16.4849 105.444 17.3968 105.444 18.7646V18.885ZM113.324 20.3131V18.9969C113.324 16.5623 114.838 14.9795 117.247 14.9795C119.569 14.9795 120.825 16.4075 120.868 17.956H119.062C118.984 17.3796 118.554 16.5709 117.29 16.5709C115.956 16.5709 115.242 17.5344 115.242 19.0399V20.3131C115.242 21.8443 116.008 22.7992 117.298 22.7992C118.511 22.7992 118.984 22.2229 119.113 21.5002H120.92C120.868 23.0401 119.69 24.3821 117.247 24.3821C114.821 24.3821 113.324 22.825 113.324 20.3131ZM123.268 24.2273V11.8653H125.17V16.7688H125.264C125.462 16.1236 126.202 14.9967 128.026 14.9967C129.798 14.9967 131.062 16.0204 131.062 18.0936V24.2273H129.161V18.6528C129.161 17.2677 128.396 16.6226 127.312 16.6226C125.944 16.6226 125.17 17.6979 125.17 19.1775V24.2273H123.268ZM136.37 24.3649C134.607 24.3649 133.394 23.281 133.394 21.5863C133.394 19.9776 134.512 18.8936 136.611 18.8936H138.908V18.042C138.908 17.0011 138.246 16.5107 137.196 16.5107C136.164 16.5107 135.699 16.9408 135.553 17.543H133.738C133.85 16.0204 134.994 14.9967 137.256 14.9967C139.2 14.9967 140.809 15.8053 140.809 18.0678V24.2273H138.994V23.0487H138.908C138.504 23.7455 137.712 24.3649 136.37 24.3649ZM136.964 22.8853C138.048 22.8853 138.908 22.1454 138.908 21.1561V20.1754H136.912C135.802 20.1754 135.312 20.7346 135.312 21.4916C135.312 22.4379 136.103 22.8853 136.964 22.8853ZM143.76 24.2273V15.1343H145.661V16.5537H145.764C145.962 15.9429 146.624 15.0053 148.147 15.0053C148.405 15.0053 148.612 15.0225 148.792 15.0569V16.743C148.629 16.7 148.293 16.6742 147.975 16.6742C146.444 16.6742 145.695 17.586 145.695 18.8162V24.2273H143.76ZM154.169 26.0596C155.64 26.0596 156.354 25.2768 156.354 23.9348V22.6358H156.251C155.907 23.4272 154.978 24.0552 153.704 24.0552C151.7 24.0552 150.186 22.6272 150.186 20.141V18.9453C150.186 16.4591 151.691 15.0139 153.704 15.0139C155.046 15.0139 156.01 15.7451 156.311 16.5193H156.406V15.1343H158.255V23.995C158.255 26.5414 156.388 27.5565 154.109 27.5565C151.657 27.5565 150.487 26.3435 150.384 24.9843H152.276C152.397 25.5951 153.094 26.0596 154.169 26.0596ZM154.298 16.5795C152.965 16.5795 152.13 17.6033 152.13 19.1775V19.969C152.13 21.5432 153.033 22.5584 154.315 22.5584C155.623 22.5584 156.354 21.4744 156.354 20.184V18.9883C156.354 17.6721 155.58 16.5795 154.298 16.5795ZM164.724 24.3821C162.247 24.3821 160.707 22.8594 160.707 20.2959V19.0657C160.707 16.4849 162.393 14.9795 164.613 14.9795C166.892 14.9795 168.501 16.5623 168.501 19.0657V20.1324H162.6V20.5798C162.6 21.8874 163.374 22.8508 164.716 22.8508C165.714 22.8508 166.402 22.3777 166.531 21.8099H168.398C168.286 22.8594 167.176 24.3821 164.724 24.3821ZM162.6 18.885H166.634V18.7646C166.634 17.3968 165.834 16.4849 164.621 16.4849C163.408 16.4849 162.6 17.3968 162.6 18.7646V18.885ZM171.03 24.2273V15.1343H172.931V16.5537H173.034C173.232 15.9429 173.895 15.0053 175.417 15.0053C175.675 15.0053 175.882 15.0225 176.063 15.0569V16.743C175.899 16.7 175.564 16.6742 175.245 16.6742C173.714 16.6742 172.966 17.586 172.966 18.8162V24.2273H171.03ZM185.044 15.0139C186.326 15.0139 187.306 15.5816 187.659 16.5021H187.754V11.8653H189.663V24.2273H187.805V22.7734H187.711C187.435 23.6939 186.343 24.3477 185.018 24.3477C182.927 24.3477 181.568 22.8594 181.568 20.4593V18.9022C181.568 16.5021 182.953 15.0139 185.044 15.0139ZM185.577 16.5795C184.304 16.5795 183.512 17.5258 183.512 19.1775V20.1754C183.512 21.8357 184.313 22.782 185.62 22.782C186.911 22.782 187.754 21.8443 187.754 20.2959V18.9195C187.754 17.5172 186.833 16.5795 185.577 16.5795ZM195.057 24.3649C193.294 24.3649 192.081 23.281 192.081 21.5863C192.081 19.9776 193.199 18.8936 195.298 18.8936H197.595V18.042C197.595 17.0011 196.933 16.5107 195.883 16.5107C194.851 16.5107 194.386 16.9408 194.24 17.543H192.425C192.537 16.0204 193.681 14.9967 195.943 14.9967C197.887 14.9967 199.496 15.8053 199.496 18.0678V24.2273H197.681V23.0487H197.595C197.191 23.7455 196.399 24.3649 195.057 24.3649ZM195.651 22.8853C196.735 22.8853 197.595 22.1454 197.595 21.1561V20.1754H195.599C194.489 20.1754 193.999 20.7346 193.999 21.4916C193.999 22.4379 194.791 22.8853 195.651 22.8853ZM202.326 24.2273V15.1343H204.202V16.7688H204.296C204.529 16.0548 205.191 14.9967 207.032 14.9967C208.864 14.9967 210.095 16.0118 210.095 18.085V24.2273H208.185V18.6442C208.185 17.2591 207.462 16.6226 206.387 16.6226C204.976 16.6226 204.236 17.7065 204.236 19.1775V24.2273H202.326ZM212.538 17.7839C212.538 15.8053 214.207 14.9795 216.056 14.9795C218.052 14.9795 219.42 15.9774 219.42 17.586H217.699C217.648 16.9925 217.106 16.3731 216.005 16.3731C215.032 16.3731 214.37 16.829 214.37 17.6119C214.37 18.6184 215.66 18.756 216.667 18.9281C218.362 19.2205 219.669 19.7625 219.669 21.483C219.669 23.3154 218.215 24.3821 215.91 24.3821C213.751 24.3821 212.366 23.41 212.366 21.7841H214.224C214.327 22.5153 214.852 22.9885 216.005 22.9885C217.286 22.9885 217.811 22.4121 217.811 21.7067C217.811 20.7604 216.77 20.6056 215.549 20.3733C213.888 20.0292 212.538 19.5646 212.538 17.7839Z" fill="white"/>
<path d="M99.4881 56.9649H95.2765L92.9694 49.8967H84.9504L82.7527 56.9649H78.6523L86.5972 32.9016H91.5043L99.4881 56.9649ZM92.274 46.9313L90.1876 40.6479C89.9669 40.0059 89.5533 38.4943 88.9432 36.1147H88.869C88.6261 37.1382 88.2348 38.6498 87.6969 40.6479L85.6477 46.9313H92.274V46.9313Z" fill="white"/>
<path d="M119.919 48.0759C119.919 51.0268 119.101 53.3594 117.466 55.0717C116 56.596 114.181 57.3573 112.009 57.3573C109.665 57.3573 107.981 56.5363 106.956 54.8945H106.882V64.0349H102.928V45.3256C102.928 43.4704 102.878 41.5664 102.781 39.6136H106.259L106.479 42.3638H106.553C107.872 40.2917 109.873 39.2574 112.558 39.2574C114.658 39.2574 116.41 40.0656 117.812 41.684C119.218 43.3041 119.919 45.4341 119.919 48.0759ZM115.891 48.2169C115.891 46.5281 115.502 45.1358 114.719 44.04C113.864 42.8973 112.716 42.3259 111.277 42.3259C110.301 42.3259 109.415 42.6441 108.623 43.2715C107.829 43.9044 107.31 44.7307 107.067 45.7542C106.945 46.2315 106.883 46.6221 106.883 46.9295V49.8226C106.883 51.0847 107.28 52.1497 108.074 53.0194C108.868 53.8892 109.899 54.3231 111.167 54.3231C112.657 54.3231 113.816 53.7626 114.645 52.6451C115.476 51.5259 115.891 50.0504 115.891 48.2169Z" fill="white"/>
<path d="M140.388 48.0759C140.388 51.0268 139.57 53.3594 137.933 55.0717C136.469 56.596 134.65 57.3573 132.478 57.3573C130.134 57.3573 128.45 56.5363 127.427 54.8945H127.352V64.0349H123.398V45.3256C123.398 43.4704 123.348 41.5664 123.252 39.6136H126.729L126.95 42.3638H127.024C128.341 40.2917 130.342 39.2574 133.029 39.2574C135.127 39.2574 136.879 40.0656 138.285 41.684C139.685 43.3041 140.388 45.4341 140.388 48.0759ZM136.36 48.2169C136.36 46.5281 135.969 45.1358 135.186 44.04C134.331 42.8973 133.187 42.3259 131.746 42.3259C130.768 42.3259 129.884 42.6441 129.09 43.2715C128.296 43.9044 127.779 44.7307 127.536 45.7542C127.415 46.2315 127.352 46.6221 127.352 46.9295V49.8226C127.352 51.0847 127.749 52.1497 128.539 53.0194C129.333 53.8874 130.364 54.3231 131.636 54.3231C133.126 54.3231 134.285 53.7626 135.114 52.6451C135.944 51.5259 136.36 50.0504 136.36 48.2169Z" fill="white"/>
<path d="M163.274 50.2168C163.274 52.2636 162.545 53.929 161.082 55.2146C159.474 56.6195 157.236 57.3211 154.359 57.3211C151.704 57.3211 149.574 56.822 147.963 55.8221L148.879 52.609C150.615 53.6324 152.52 54.1459 154.595 54.1459C156.084 54.1459 157.243 53.8168 158.076 53.1623C158.905 52.5077 159.318 51.6289 159.318 50.5332C159.318 49.5568 158.977 48.7341 158.293 48.0668C157.612 47.3996 156.475 46.7794 154.888 46.2062C150.567 44.6349 148.408 42.3331 148.408 39.3062C148.408 37.3281 149.165 35.7061 150.68 34.444C152.189 33.1801 154.203 32.549 156.722 32.549C158.968 32.549 160.833 32.9306 162.323 33.6918L161.334 36.8344C159.943 36.0967 158.371 35.7278 156.611 35.7278C155.22 35.7278 154.133 36.0623 153.354 36.7277C152.696 37.3226 152.366 38.0477 152.366 38.9066C152.366 39.8577 152.742 40.6443 153.499 41.2627C154.157 41.834 155.353 42.4524 157.089 43.1197C159.213 43.9532 160.772 44.9278 161.776 46.0453C162.775 47.1591 163.274 48.5532 163.274 50.2168Z" fill="white"/>
<path d="M176.346 42.5067H171.988V50.931C171.988 53.0737 172.755 54.1441 174.295 54.1441C175.001 54.1441 175.587 54.0844 176.051 53.9651L176.16 56.8925C175.381 57.1764 174.356 57.3193 173.085 57.3193C171.524 57.3193 170.304 56.8546 169.423 55.927C168.546 54.9976 168.104 53.4389 168.104 51.2492V42.503H165.508V39.61H168.104V36.433L171.988 35.2902V39.61H176.346V42.5067Z" fill="white"/>
<path d="M196.009 48.1464C196.009 50.8134 195.226 53.0032 193.665 54.7155C192.027 56.4785 189.854 57.3572 187.144 57.3572C184.533 57.3572 182.454 56.5128 180.904 54.824C179.353 53.1351 178.578 51.0033 178.578 48.4339C178.578 45.7451 179.376 43.5428 180.976 41.8304C182.573 40.1163 184.728 39.2592 187.437 39.2592C190.048 39.2592 192.15 40.1036 193.735 41.7943C195.252 43.4343 196.009 45.5516 196.009 48.1464ZM191.907 48.2711C191.907 46.6709 191.556 45.2985 190.846 44.1539C190.017 42.7689 188.832 42.0781 187.296 42.0781C185.707 42.0781 184.5 42.7707 183.671 44.1539C182.96 45.3003 182.61 46.6944 182.61 48.3435C182.61 49.9437 182.96 51.3161 183.671 52.4589C184.526 53.844 185.72 54.5347 187.261 54.5347C188.771 54.5347 189.956 53.8295 190.811 52.4227C191.54 51.2565 191.907 49.8696 191.907 48.2711Z" fill="white"/>
<path d="M208.861 43.0039C208.47 42.9334 208.053 42.8973 207.615 42.8973C206.224 42.8973 205.148 43.409 204.392 44.4342C203.733 45.3383 203.403 46.4811 203.403 47.8607V56.9649H199.451L199.488 45.0779C199.488 43.0781 199.438 41.2572 199.34 39.6154H202.784L202.928 42.9352H203.038C203.455 41.7943 204.113 40.8757 205.015 40.1868C205.896 39.5666 206.847 39.2574 207.873 39.2574C208.238 39.2574 208.568 39.2827 208.861 39.3279V43.0039Z" fill="white"/>
<path d="M226.544 47.4683C226.544 48.159 226.498 48.7413 226.399 49.2168H214.538C214.584 50.931 215.157 52.2419 216.259 53.146C217.258 53.9542 218.551 54.3593 220.138 54.3593C221.895 54.3593 223.497 54.0862 224.938 53.5384L225.557 56.2145C223.873 56.9305 221.885 57.2867 219.591 57.2867C216.832 57.2867 214.666 56.4947 213.089 54.9126C211.517 53.3304 210.729 51.2058 210.729 48.5406C210.729 45.9241 211.461 43.7453 212.928 42.0076C214.464 40.1524 216.539 39.2248 219.15 39.2248C221.715 39.2248 223.657 40.1524 224.975 42.0076C226.019 43.4813 226.544 45.3039 226.544 47.4683ZM222.774 46.4684C222.8 45.3256 222.542 44.3384 222.006 43.5048C221.322 42.4325 220.27 41.8973 218.855 41.8973C217.563 41.8973 216.511 42.4199 215.708 43.4686C215.05 44.3022 214.658 45.3021 214.538 46.4666H222.774V46.4684Z" fill="white"/>
</svg>
