<svg width="251" height="73" viewBox="0 0 251 73" fill="none" xmlns="http://www.w3.org/2000/svg">
<path d="M241.091 72.3272H9.27271C4.17504 72.3272 0 68.2565 0 63.2863V9.04091C0 4.07068 4.17504 1.52588e-05 9.27271 1.52588e-05H241.091C246.188 1.52588e-05 250.363 4.07068 250.363 9.04091V63.2863C250.363 68.2565 246.188 72.3272 241.091 72.3272Z" fill="black"/>
<path d="M241.091 1.44882C245.384 1.44882 248.877 4.85498 248.877 9.04091V63.2863C248.877 67.4722 245.384 70.8784 241.091 70.8784H9.27271C4.97945 70.8784 1.48595 67.4722 1.48595 63.2863V9.04091C1.48595 4.85498 4.97945 1.44882 9.27271 1.44882H241.091ZM241.091 1.52588e-05H9.27271C4.17504 1.52588e-05 0 4.07068 0 9.04091V63.2863C0 68.2565 4.17504 72.3272 9.27271 72.3272H241.091C246.188 72.3272 250.363 68.2565 250.363 63.2863V9.04091C250.363 4.07068 246.188 1.52588e-05 241.091 1.52588e-05Z" fill="#A6A6A6"/>
<path d="M19.3503 13.6314C18.8055 14.1874 18.4902 15.0531 18.4902 16.1741V56.162C18.4902 57.2831 18.8055 58.1488 19.3503 58.7048L19.4847 58.8268L42.4671 36.428V35.8991L19.4847 13.5003L19.3503 13.6314Z" fill="url(#paint0_linear_72_1786)"/>
<path d="M50.1211 43.898L42.4688 36.428V35.8991L50.1303 28.4291L50.3019 28.5263L59.3752 33.5598C61.9646 34.9882 61.9646 37.3389 59.3752 38.7764L50.3019 43.8009L50.1211 43.898V43.898Z" fill="url(#paint1_linear_72_1786)"/>
<path d="M50.3016 43.8009L42.4684 36.1636L19.3516 58.7048C20.2116 59.5863 21.6141 59.6925 23.209 58.811L50.3016 43.8009" fill="url(#paint2_linear_72_1786)"/>
<path d="M50.3016 28.5263L23.209 13.5161C21.6141 12.6437 20.2116 12.7499 19.3516 13.6314L42.4684 36.1636L50.3016 28.5263Z" fill="url(#paint3_linear_72_1786)"/>
<path d="M77.4226 14.1844H81.0479C84.1806 14.1844 85.7046 16.047 85.7046 19.4261C85.7046 22.8051 84.1652 24.6909 81.0479 24.6909H77.4226V14.1844ZM79.1698 15.6545V23.2207H80.8555C82.9337 23.2207 83.9112 21.9661 83.9112 19.4492C83.9112 16.9168 82.926 15.6545 80.8555 15.6545H79.1698ZM89.6686 24.6909H87.9214V14.1844H89.6686V24.6909ZM91.7391 21.9276H93.4556C93.6249 22.8359 94.4947 23.4593 95.7955 23.4593C97.1733 23.4593 97.9738 22.8128 97.9738 21.8275C97.9738 21.0347 97.4427 20.6037 96.3035 20.3266L94.5794 19.8956C92.9784 19.5107 92.0085 18.5563 92.0085 17.0631C92.0085 15.2081 93.5787 13.9534 95.8032 13.9534C98.043 13.9534 99.4439 15.2004 99.5748 16.8091H97.8814C97.7121 15.9701 96.9578 15.3851 95.7878 15.3851C94.5486 15.3851 93.7635 16.0317 93.7635 16.963C93.7635 17.648 94.2792 18.1099 95.2182 18.3331L96.9347 18.7564C98.705 19.1875 99.721 20.0341 99.721 21.6736C99.721 23.6056 98.2124 24.8987 95.6647 24.8987C93.217 24.8987 91.8623 23.6056 91.7391 21.9276ZM105.994 14.1844C108.149 14.1844 109.45 15.6314 109.45 17.5788C109.45 19.5415 108.134 20.9655 105.979 20.9655H103.708V24.6909H101.961V14.1844H105.994ZM107.664 17.5788C107.664 16.3395 106.949 15.6314 105.732 15.6314H103.7V19.5338H105.732C106.949 19.5338 107.664 18.818 107.664 17.5788ZM119.726 20.1573C119.726 23.1284 118.055 24.8987 115.361 24.8987C112.667 24.8987 110.99 23.1284 110.99 20.1573V18.7256C110.99 15.7392 112.667 13.9765 115.361 13.9765C118.055 13.9765 119.726 15.7469 119.726 18.7256V20.1573ZM117.955 18.7102C117.955 16.5397 116.847 15.4698 115.361 15.4698C113.861 15.4698 112.76 16.5397 112.76 18.7102V20.165C112.76 22.3433 113.861 23.4131 115.361 23.4131C116.847 23.4131 117.955 22.3433 117.955 20.165V18.7102ZM123.759 24.6909H122.081V14.1844H123.62L128.523 21.7275H128.6V14.1844H130.278V24.6909H128.747L123.828 17.1246H123.759V24.6909ZM134.804 24.6909H133.057V14.1844H134.804V24.6909ZM137.583 24.6909V14.1844H141.77C143.602 14.1844 144.787 15.1696 144.787 16.7706C144.787 18.0021 144.095 18.7872 143.04 19.0797V19.1567C144.372 19.3106 145.349 20.2112 145.349 21.7352C145.349 23.5979 143.879 24.6909 141.693 24.6909H137.583ZM139.322 15.5698V18.6256H140.8C142.363 18.6256 143.056 18.1022 143.056 17.0631C143.056 16.1317 142.447 15.5698 141.401 15.5698H139.322ZM139.322 19.9418V23.3054H140.993C142.825 23.3054 143.571 22.782 143.571 21.6736C143.571 20.5883 142.848 19.9418 141.547 19.9418H139.322ZM153.932 23.1745V24.6909H147.558V14.1844H149.306V23.1745H153.932ZM162.291 23.2207V24.6909H155.733V14.1844H162.291V15.6545H157.472V18.6487H162.006V20.0572H157.472V23.2207H162.291ZM167.555 21.9276H169.272C169.441 22.8359 170.311 23.4593 171.612 23.4593C172.989 23.4593 173.79 22.8128 173.79 21.8275C173.79 21.0347 173.259 20.6037 172.12 20.3266L170.396 19.8956C168.795 19.5107 167.825 18.5563 167.825 17.0631C167.825 15.2081 169.395 13.9534 171.619 13.9534C173.859 13.9534 175.26 15.2004 175.391 16.8091H173.698C173.528 15.9701 172.774 15.3851 171.604 15.3851C170.365 15.3851 169.58 16.0317 169.58 16.963C169.58 17.648 170.095 18.1099 171.034 18.3331L172.751 18.7564C174.521 19.1875 175.537 20.0341 175.537 21.6736C175.537 23.6056 174.029 24.8987 171.481 24.8987C169.033 24.8987 167.678 23.6056 167.555 21.9276ZM181.78 23.3901C183.219 23.3901 184.158 22.4818 184.158 20.9424V14.1844H185.905V21.0655C185.905 23.367 184.281 24.8987 181.78 24.8987C179.286 24.8987 177.654 23.367 177.654 21.0655V14.1844H179.401V20.9424C179.401 22.4895 180.34 23.3901 181.78 23.3901ZM192.571 14.1844C194.78 14.1844 196.111 15.4621 196.111 17.4171C196.111 18.9104 195.249 19.9649 194.18 20.3574L196.304 24.6909H194.341L192.455 20.6499H190.277V24.6909H188.553V14.1844H192.571ZM190.277 19.2644H192.278C193.564 19.2644 194.31 18.6564 194.31 17.4787C194.31 16.278 193.541 15.616 192.325 15.616H190.277V19.2644Z" fill="white"/>
<path d="M126.358 39.3325C122.002 39.3325 118.444 42.5646 118.444 47.024C118.444 51.4473 122.002 54.7133 126.358 54.7133C130.723 54.7133 134.282 51.4473 134.282 47.024C134.282 42.5646 130.723 39.3325 126.358 39.3325ZM126.358 51.6846C123.968 51.6846 121.912 49.7611 121.912 47.024C121.912 44.2507 123.968 42.3612 126.358 42.3612C128.748 42.3612 130.814 44.2507 130.814 47.024C130.814 49.7611 128.748 51.6846 126.358 51.6846V51.6846ZM109.09 39.3325C104.725 39.3325 101.176 42.5646 101.176 47.024C101.176 51.4473 104.725 54.7133 109.09 54.7133C113.453 54.7133 117.004 51.4473 117.004 47.024C117.004 42.5646 113.453 39.3325 109.09 39.3325ZM109.09 51.6846C106.698 51.6846 104.635 49.7611 104.635 47.024C104.635 44.2507 106.698 42.3612 109.09 42.3612C111.48 42.3612 113.536 44.2507 113.536 47.024C113.536 49.7611 111.48 51.6846 109.09 51.6846ZM88.5418 41.6899V44.9582H96.5464C96.3123 46.7844 95.6864 48.127 94.7267 49.0627C93.5583 50.1928 91.7385 51.4473 88.5418 51.4473C83.6156 51.4473 79.7582 47.571 79.7582 42.768C79.7582 37.965 83.6156 34.0887 88.5418 34.0887C91.2053 34.0887 93.1433 35.1036 94.5737 36.419L96.9359 34.1159C94.9353 32.2534 92.274 30.8227 88.5418 30.8227C81.7866 30.8227 76.1094 36.1817 76.1094 42.768C76.1094 49.3543 81.7866 54.7133 88.5418 54.7133C92.1929 54.7133 94.9353 53.547 97.0912 51.3591C99.3004 49.2051 99.9889 46.1764 99.9889 43.7309C99.9889 42.9714 99.924 42.273 99.8081 41.6899H88.5418ZM172.566 44.2236C171.915 42.5036 169.905 39.3325 165.811 39.3325C161.754 39.3325 158.377 42.4493 158.377 47.024C158.377 51.332 161.72 54.7133 166.201 54.7133C169.824 54.7133 171.915 52.5593 172.775 51.3049L170.086 49.5577C169.189 50.837 167.967 51.6846 166.201 51.6846C164.446 51.6846 163.187 50.9003 162.38 49.3543L172.93 45.0983L172.566 44.2236V44.2236ZM161.81 46.7844C161.72 43.819 164.172 42.3001 165.929 42.3001C167.306 42.3001 168.475 42.9714 168.864 43.932L161.81 46.7844V46.7844ZM153.235 54.2454H156.703V31.6432H153.235V54.2454ZM147.556 41.0457H147.44C146.661 40.1461 145.175 39.3325 143.292 39.3325C139.342 39.3325 135.731 42.7138 135.731 47.0489C135.731 51.3591 139.342 54.7133 143.292 54.7133C145.175 54.7133 146.661 53.8928 147.44 52.9661H147.556V54.0691C147.556 57.0097 145.944 58.5896 143.346 58.5896C141.227 58.5896 139.913 57.0978 139.37 55.8434L136.354 57.0707C137.223 59.1094 139.525 61.6183 143.346 61.6183C147.412 61.6183 150.843 59.2857 150.843 53.6103V39.8003H147.556V41.0457V41.0457ZM143.589 51.6846C141.199 51.6846 139.199 49.734 139.199 47.0489C139.199 44.3389 141.199 42.3612 143.589 42.3612C145.944 42.3612 147.801 44.3389 147.801 47.0489C147.801 49.734 145.944 51.6846 143.589 51.6846V51.6846ZM188.803 31.6432H180.508V54.2454H183.967V45.6814H188.803C192.644 45.6814 196.411 42.9714 196.411 38.6612C196.411 34.3532 192.635 31.6432 188.803 31.6432V31.6432ZM188.893 42.5375H183.967V34.7872H188.893C191.476 34.7872 192.95 36.8779 192.95 38.6612C192.95 40.4106 191.476 42.5375 188.893 42.5375ZM210.274 39.2895C207.775 39.2895 205.176 40.3654 204.108 42.7499L207.177 44.0043C207.837 42.7499 209.052 42.3431 210.336 42.3431C212.131 42.3431 213.951 43.3941 213.978 45.2497V45.487C213.352 45.1345 212.013 44.6123 210.364 44.6123C207.059 44.6123 203.69 46.3866 203.69 49.6978C203.69 52.7265 206.398 54.6771 209.442 54.6771C211.769 54.6771 213.053 53.6532 213.86 52.4621H213.978V54.2092H217.319V45.539C217.319 41.5317 214.25 39.2895 210.274 39.2895ZM209.857 51.6755C208.725 51.6755 207.149 51.1286 207.149 49.7611C207.149 48.0117 209.115 47.3404 210.816 47.3404C212.339 47.3404 213.053 47.6682 213.978 48.0999C213.707 50.1928 211.86 51.6755 209.857 51.6755V51.6755ZM229.489 39.7845L225.514 49.5826H225.395L221.285 39.7845H217.555L223.731 53.4769L220.207 61.0961H223.821L233.337 39.7845H229.489V39.7845ZM198.312 54.2454H201.78V31.6432H198.312V54.2454Z" fill="white"/>
<defs>
<linearGradient id="paint0_linear_72_1786" x1="40.4266" y1="56.5785" x2="10.0907" y2="25.4648" gradientUnits="userSpaceOnUse">
<stop stop-color="#00A0FF"/>
<stop offset="0.0066" stop-color="#00A1FF"/>
<stop offset="0.2601" stop-color="#00BEFF"/>
<stop offset="0.5122" stop-color="#00D2FF"/>
<stop offset="0.7604" stop-color="#00DFFF"/>
<stop offset="1" stop-color="#00E3FF"/>
</linearGradient>
<linearGradient id="paint1_linear_72_1786" x1="62.7471" y1="36.161" x2="17.8729" y2="36.161" gradientUnits="userSpaceOnUse">
<stop stop-color="#FFE000"/>
<stop offset="0.4087" stop-color="#FFBD00"/>
<stop offset="0.7754" stop-color="#FFA500"/>
<stop offset="1" stop-color="#FF9C00"/>
</linearGradient>
<linearGradient id="paint2_linear_72_1786" x1="46.0421" y1="32.0118" x2="4.90425" y2="-10.1809" gradientUnits="userSpaceOnUse">
<stop stop-color="#FF3A44"/>
<stop offset="1" stop-color="#C31162"/>
</linearGradient>
<linearGradient id="paint3_linear_72_1786" x1="13.5326" y1="72.0086" x2="31.9025" y2="53.1678" gradientUnits="userSpaceOnUse">
<stop stop-color="#32A071"/>
<stop offset="0.0685" stop-color="#2DA771"/>
<stop offset="0.4762" stop-color="#15CF74"/>
<stop offset="0.8009" stop-color="#06E775"/>
<stop offset="1" stop-color="#00F076"/>
</linearGradient>
</defs>
</svg>
